<mxfile host="app.diagrams.net" modified="2023-06-16T03:07:11.394Z" agent="Mozilla/5.0 (Macintosh; Intel Mac OS X 10_15_7) AppleWebKit/537.36 (KHTML, like Gecko) Chrome/114.0.0.0 Safari/537.36" version="21.3.7" etag="bxL6fh81WUScWhh9mTIl" type="github">
  <diagram name="Trang-1" id="AHfmtlic9p6acToqsaVe">
    <mxGraphModel>
      <root>
        <mxCell id="0" />
        <mxCell id="1" parent="0" />
      </root>
    </mxGraphModel>
  </diagram>
</mxfile>
